<svg xmlns="https://www.w3.org/2000/svg" xmlns:xlink="http://www.w3.org/1999/xlink">
  <defs>
    <symbol id="arrow" viewBox="0 0 24 24">
      <title>arrow</title>
      <path d="M13.47 8.52985C13.3375 8.38767 13.2654 8.19963 13.2688 8.00532C13.2723 7.81102 13.351 7.62564 13.4884 7.48822C13.6258 7.35081 13.8112 7.2721 14.0055 7.26867C14.1998 7.26524 14.3878 7.33737 14.53 7.46985L18.53 11.4698C18.6705 11.6105 18.7493 11.8011 18.7493 11.9998C18.7493 12.1986 18.6705 12.3892 18.53 12.5298L14.53 16.5298C14.4613 16.6035 14.3785 16.6626 14.2865 16.7036C14.1945 16.7446 14.0952 16.7667 13.9945 16.7684C13.8938 16.7702 13.7938 16.7517 13.7004 16.714C13.607 16.6762 13.5222 16.6201 13.451 16.5489C13.3797 16.4777 13.3236 16.3928 13.2859 16.2994C13.2482 16.2061 13.2296 16.106 13.2314 16.0053C13.2332 15.9046 13.2552 15.8053 13.2962 15.7133C13.3372 15.6213 13.3963 15.5385 13.47 15.4698L16.19 12.7498H6.5C6.30109 12.7498 6.11032 12.6708 5.96967 12.5302C5.82902 12.3895 5.75 12.1988 5.75 11.9998C5.75 11.8009 5.82902 11.6102 5.96967 11.4695C6.11032 11.3289 6.30109 11.2498 6.5 11.2498H16.19L13.47 8.52985Z" fill="#4C7BFE"/>
    </symbol>

    <symbol id="award" viewBox="0 0 24 24">
      <title>award</title>
      <path d="M14.0254 5.75812C13.3929 3.74729 10.6071 3.74729 9.97458 5.75812C9.8844 6.0448 9.63594 6.21631 9.38004 6.21631C7.27098 6.21631 6.5079 8.93003 8.12023 10.1401C8.3424 10.3068 8.44667 10.6157 8.35535 10.906C8.04546 11.8912 8.44292 12.8128 9.12096 13.3217C9.80252 13.8332 10.8037 13.9498 11.6406 13.3217C11.8566 13.1595 12.1434 13.1595 12.3594 13.3217C13.1963 13.9498 14.1975 13.8332 14.879 13.3217C15.5571 12.8128 15.9545 11.8912 15.6447 10.906C15.5533 10.6157 15.6576 10.3068 15.8798 10.1401C17.4921 8.93003 16.729 6.21631 14.62 6.21631C14.3641 6.21631 14.1156 6.0448 14.0254 5.75812ZM9.38004 7.71631C10.3176 7.71631 11.1268 7.09399 11.4055 6.20819C11.5976 5.59727 12.4024 5.59727 12.5945 6.20819C12.8732 7.09399 13.6824 7.71631 14.62 7.71631C14.91 7.71631 15.1265 7.89471 15.2145 8.17451C15.303 8.45601 15.2307 8.75176 14.9794 8.9404C14.236 9.49829 13.9363 10.4739 14.2138 11.3561C14.3162 11.6818 14.1936 11.9606 13.9786 12.122C13.7672 12.2807 13.5024 12.304 13.2598 12.122C12.5103 11.5594 11.4897 11.5594 10.7402 12.122C10.4976 12.304 10.2328 12.2807 10.0214 12.122C9.80639 11.9606 9.68379 11.6818 9.78623 11.3561C10.0637 10.4739 9.76396 9.49829 9.02062 8.9404C8.76928 8.75176 8.69695 8.45601 8.7855 8.17451C8.87351 7.89471 9.08997 7.71631 9.38004 7.71631Z" fill="#4C7BFE"/>
      <path d="M12 0.25C7.16751 0.25 3.25 4.16751 3.25 9C3.25 11.1147 4.00107 13.0556 5.25004 14.5682L5.25 20.4389C5.24994 21.1694 5.2499 21.8022 5.32055 22.2768C5.39181 22.7554 5.57441 23.3562 6.19277 23.6328C6.8017 23.9052 7.3734 23.6551 7.78705 23.4002C8.20088 23.1452 8.69302 22.7349 9.26519 22.258L10.2489 21.438C10.796 20.982 11.154 20.6853 11.4511 20.4945C11.7302 20.3153 11.88 20.2807 12 20.2807C12.12 20.2807 12.2698 20.3153 12.5489 20.4945C12.846 20.6853 13.204 20.982 13.7511 21.438L14.7348 22.2579C15.307 22.7349 15.7991 23.1452 16.2129 23.4002C16.6266 23.6551 17.1983 23.9052 17.8072 23.6328C18.4256 23.3562 18.6082 22.7554 18.6795 22.2768C18.7501 21.8022 18.7501 21.1694 18.75 20.4389L18.75 14.5682C19.9989 13.0556 20.75 11.1147 20.75 9C20.75 4.16751 16.8325 0.25 12 0.25ZM4.75 9C4.75 4.99594 7.99594 1.75 12 1.75C16.0041 1.75 19.25 4.99594 19.25 9C19.25 10.8392 18.5661 12.5168 17.4377 13.7953C16.1081 15.3017 14.1653 16.25 12 16.25C9.83492 16.25 7.89222 15.3019 6.56267 13.7958C5.43402 12.5172 4.75 10.8394 4.75 9ZM6.8042 22.0559C6.75204 21.7055 6.75 21.1869 6.75 20.3787V16.0005C8.21211 17.0986 10.0302 17.75 12 17.75C13.9698 17.75 15.7879 17.0986 17.25 16.0005V20.3787C17.25 21.1869 17.248 21.7055 17.1958 22.0559C17.1857 22.1241 17.175 22.1758 17.1653 22.2144C17.1247 22.1955 17.0704 22.1667 16.9999 22.1232C16.6891 21.9317 16.2802 21.5933 15.6503 21.0683L14.6767 20.2568C14.174 19.8378 13.7445 19.4797 13.3595 19.2324C12.9476 18.9679 12.5142 18.7807 12 18.7807C11.4858 18.7807 11.0524 18.9679 10.6405 19.2324C10.2555 19.4797 9.82595 19.8378 9.32328 20.2568L8.34973 21.0683C7.7198 21.5933 7.31089 21.9317 7.0001 22.1232C6.92957 22.1667 6.87531 22.1955 6.83474 22.2144C6.82498 22.1758 6.81435 22.1241 6.8042 22.0559ZM17.1282 22.3173C17.128 22.3168 17.1298 22.3131 17.1343 22.3075C17.1306 22.3149 17.1283 22.3177 17.1282 22.3173ZM17.2565 22.2487C17.2627 22.2488 17.2662 22.2495 17.2664 22.2499C17.2666 22.2502 17.2635 22.2502 17.2565 22.2487ZM6.73359 22.2499C6.73378 22.2495 6.73725 22.2488 6.74345 22.2487C6.7365 22.2502 6.7334 22.2502 6.73359 22.2499ZM6.87184 22.3173C6.87203 22.3168 6.87017 22.3131 6.86573 22.3075C6.86619 22.3084 6.86663 22.3093 6.86704 22.3101C6.86995 22.3156 6.87168 22.3177 6.87184 22.3173Z" fill="#4C7BFE"/>
    </symbol>

    <symbol id="chatbot_lg" viewBox="0 0 24 24">
      <title>chatbot_lg</title>
      <g clip-path="url(#clip0_7335_15189)">
      <path d="M18.2984 24.001H5.70069C4.98468 24.0001 4.29825 23.7153 3.79195 23.209C3.28566 22.7027 3.00085 22.0163 3 21.3003V12.7109C3 9.01109 6.01011 6.00098 9.70988 6.00098H14.2901C17.9899 6.00098 21 9.01109 21 12.7109V21.3003C20.9991 22.0165 20.7142 22.703 20.2077 23.2093C19.7012 23.7157 19.0146 24.0004 18.2984 24.001ZM9.70988 7.50098C8.29661 7.50256 6.94122 7.94399 5.94189 8.94332C4.94255 9.94266 4.50158 11.2976 4.5 12.7109V21.3003C4.50037 21.6507 4.51861 21.9867 4.76644 22.2344C5.01427 22.4821 5.35027 22.5007 5.70069 22.501H18.2984C18.6487 22.5006 18.9846 22.482 19.2323 22.2342C19.4801 21.9865 19.4996 21.6506 19.5 21.3003V12.751C19.4984 11.3378 19.0561 9.94281 18.0569 8.94349C17.0577 7.94416 15.7033 7.50268 14.2901 7.50098H9.70988Z" fill="#4C7BFE"/>
      <path d="M21 17.5978C20.5509 17.5978 19.5 17.4719 19.5 16.7854V12.75C19.5 12.0147 20.5248 12 21 12C21.7356 12 22.6675 12.3428 23.1876 12.863C23.7078 13.3831 24 14.0886 24 14.8242C24 15.5598 23.7078 16.2653 23.1876 16.7854C22.6675 17.3056 21.7356 17.5978 21 17.5978ZM21 16.1916C21.3626 16.1916 21.9368 16.0475 22.1933 15.7911C22.4497 15.5347 22.5 15.1869 22.5 14.8242C22.5 14.4616 22.4497 14.1138 22.1933 13.8574C21.9368 13.6009 21.3626 13.5 21 13.5V16.1916ZM3 17.5978C2.2644 17.5978 1.33252 17.3056 0.812367 16.7854C0.292217 16.2653 0 15.5598 0 14.8242C0 14.0886 0.292217 13.3831 0.812367 12.863C1.33252 12.3428 2.2644 12.0506 3 12.0506C3.36594 12.0506 4.5 12.1537 4.5 12.75V17.25C4.5 17.5286 3.26259 17.5978 3 17.5978ZM3 13.5C2.63736 13.5 2.06316 13.6009 1.80674 13.8574C1.55031 14.1138 1.40625 14.4616 1.40625 14.8242C1.40625 15.1869 1.55031 15.5347 1.80674 15.7911C2.06316 16.0475 2.63736 16.1916 3 16.1916V13.5ZM12 7.05469C11.8135 7.05469 11.6347 6.98061 11.5028 6.84875C11.371 6.71689 11.2969 6.53804 11.2969 6.35156V3.52734C11.2969 3.34086 11.371 3.16202 11.5028 3.03016C11.6347 2.8983 11.8135 2.82422 12 2.82422C12.1865 2.82422 12.3653 2.8983 12.4972 3.03016C12.629 3.16202 12.7031 3.34086 12.7031 3.52734V6.35156C12.7031 6.53804 12.629 6.71689 12.4972 6.84875C12.3653 6.98061 12.1865 7.05469 12 7.05469Z" fill="#4C7BFE"/>
      <path d="M12 4.23094C11.5816 4.23103 11.1725 4.10704 10.8246 3.87465C10.4766 3.64225 10.2054 3.31189 10.0452 2.92535C9.88504 2.53881 9.84308 2.11344 9.92466 1.70305C10.0062 1.29266 10.2077 0.915674 10.5035 0.619773C10.7993 0.323873 11.1763 0.122347 11.5867 0.0406834C11.997 -0.0409804 12.4224 0.00088552 12.809 0.160987C13.1956 0.321088 13.526 0.592232 13.7584 0.940129C13.9909 1.28803 14.115 1.69705 14.115 2.11547C14.1145 2.67629 13.8915 3.21401 13.495 3.61062C13.0985 4.00722 12.5608 4.23032 12 4.23094ZM12 1.40672C11.8597 1.40663 11.7225 1.44815 11.6058 1.52605C11.4891 1.60394 11.3981 1.7147 11.3444 1.84432C11.2907 1.97393 11.2766 2.11657 11.3039 2.25418C11.3313 2.3918 11.3988 2.51822 11.498 2.61743C11.5973 2.71665 11.7237 2.7842 11.8613 2.81155C11.9989 2.8389 12.1415 2.82482 12.2712 2.77108C12.4008 2.71734 12.5115 2.62637 12.5894 2.50967C12.6673 2.39296 12.7088 2.25578 12.7088 2.11547C12.7085 1.92757 12.6338 1.74744 12.5009 1.61458C12.368 1.48172 12.1879 1.40697 12 1.40672Z" fill="#4C7BFE"/>
      <path d="M9.41543 18.751C9.30359 18.751 9.19286 18.7296 9.08956 18.6883C8.98625 18.6469 8.8924 18.5862 8.81337 18.5098L6.24911 16.0332C6.17008 15.9568 6.10741 15.8662 6.06466 15.7664C6.02192 15.6666 5.99995 15.5596 6 15.4516V13.3873C6.0009 12.622 6.31603 11.8884 6.87624 11.3473C7.43644 10.8063 8.19597 10.502 8.98815 10.5013H14.9707C15.3665 10.496 15.7595 10.5667 16.1268 10.7094C16.4941 10.8521 16.8283 11.0639 17.1102 11.3324C17.392 11.601 17.6158 11.9209 17.7686 12.2737C17.9213 12.6265 18 13.0051 18 13.3876C18 13.77 17.9213 14.1486 17.7686 14.5014C17.6158 14.8542 17.392 15.1742 17.1102 15.4427C16.8283 15.7112 16.4941 15.923 16.1268 16.0657C15.7595 16.2084 15.3665 16.2791 14.9707 16.2739H11.5802L10.1236 18.3848C10.0537 18.4859 9.96149 18.5709 9.85356 18.6334C9.74562 18.696 9.62467 18.7346 9.49941 18.7466C9.47104 18.7493 9.44323 18.751 9.41543 18.751ZM7.70232 15.109L9.28322 16.6356L10.4181 14.9912C10.4958 14.8786 10.6011 14.7862 10.7247 14.7223C10.8482 14.6585 10.9861 14.625 11.1263 14.625H14.9724C15.1435 14.6285 15.3136 14.5989 15.4727 14.5381C15.6318 14.4772 15.7767 14.3863 15.899 14.2707C16.0213 14.155 16.1184 14.0169 16.1847 13.8645C16.2511 13.7121 16.2852 13.5485 16.2852 13.3832C16.2852 13.2179 16.2511 13.0542 16.1847 12.9018C16.1184 12.7494 16.0213 12.6113 15.899 12.4957C15.7767 12.38 15.6318 12.2891 15.4727 12.2283C15.3136 12.1674 15.1435 12.1379 14.9724 12.1413H8.98815C8.64732 12.1416 8.32052 12.2725 8.07946 12.5053C7.83841 12.738 7.70277 13.0537 7.70232 13.3829V15.109Z" fill="#4C7BFE"/>
      </g>
      <defs>
      <clipPath id="clip0_7335_15189">
      <rect width="24" height="24" fill="white"/>
      </clipPath>
      </defs>
    </symbol>

    <symbol id="chatbot_sm" viewBox="0 0 24 24">
      <title>chatbot_sm</title>
      <rect width="24" height="24" rx="12" fill="#4C7BFE"/>
      <g clip-path="url(#clip0_5534_18539)">
      <path d="M16.1989 19H7.80046C7.32312 18.9994 6.8655 18.8096 6.52797 18.472C6.19044 18.1345 6.00057 17.6769 6 17.1995V11.4733C6 9.00674 8.00674 7 10.4733 7H13.5267C15.9933 7 18 9.00674 18 11.4733V17.1995C17.9994 17.677 17.8095 18.1347 17.4718 18.4722C17.1342 18.8098 16.6764 18.9996 16.1989 19ZM10.4733 8C9.53108 8.00105 8.62748 8.29534 7.96126 8.96156C7.29504 9.62779 7.00105 10.5311 7 11.4733V17.1995C7.00024 17.4332 7.01241 17.6571 7.17763 17.8223C7.34284 17.9874 7.56685 17.9998 7.80046 18H16.1989C16.4325 17.9998 16.6564 17.9873 16.8216 17.8222C16.9867 17.657 16.9998 17.4331 17 17.1995V11.5C16.9989 10.5579 16.7041 9.62789 16.0379 8.96167C15.3718 8.29546 14.4689 8.00114 13.5267 8H10.4733Z" fill="white"/>
      <path d="M18 14.7319C17.7006 14.7319 17 14.6479 17 14.1903V11.5C17 11.0098 17.6832 11 18 11C18.4904 11 19.1117 11.2286 19.4584 11.5753C19.8052 11.9221 20 12.3924 20 12.8828C20 13.3732 19.8052 13.8435 19.4584 14.1903C19.1117 14.5371 18.4904 14.7319 18 14.7319ZM18 13.7944C18.2418 13.7944 18.6246 13.6983 18.7955 13.5274C18.9665 13.3564 19 13.1246 19 12.8828C19 12.6411 18.9665 12.4092 18.7955 12.2382C18.6246 12.0673 18.2418 12 18 12V13.7944ZM6 14.7319C5.5096 14.7319 4.88834 14.5371 4.54158 14.1903C4.19481 13.8435 4 13.3732 4 12.8828C4 12.3924 4.19481 11.9221 4.54158 11.5753C4.88834 11.2286 5.5096 11.0337 6 11.0337C6.24396 11.0337 7 11.1024 7 11.5V14.5C7 14.6857 6.17506 14.7319 6 14.7319ZM6 12C5.75824 12 5.37544 12.0673 5.20449 12.2382C5.03354 12.4092 4.9375 12.6411 4.9375 12.8828C4.9375 13.1246 5.03354 13.3564 5.20449 13.5274C5.37544 13.6983 5.75824 13.7944 6 13.7944V12ZM12 7.70312C11.8757 7.70312 11.7565 7.65374 11.6685 7.56583C11.5806 7.47792 11.5312 7.3587 11.5312 7.23438V5.35156C11.5312 5.22724 11.5806 5.10801 11.6685 5.02011C11.7565 4.9322 11.8757 4.88281 12 4.88281C12.1243 4.88281 12.2435 4.9322 12.3315 5.02011C12.4194 5.10801 12.4688 5.22724 12.4688 5.35156V7.23438C12.4688 7.3587 12.4194 7.47792 12.3315 7.56583C12.2435 7.65374 12.1243 7.70312 12 7.70312Z" fill="white"/>
      <path d="M12 5.82063C11.7211 5.82069 11.4484 5.73803 11.2164 5.5831C10.9844 5.42817 10.8036 5.20793 10.6968 4.95023C10.59 4.69254 10.5621 4.40896 10.6164 4.13537C10.6708 3.86177 10.8051 3.61045 11.0023 3.41318C11.1996 3.21592 11.4509 3.08156 11.7244 3.02712C11.998 2.97268 12.2816 3.00059 12.5393 3.10732C12.797 3.21406 13.0173 3.39482 13.1723 3.62675C13.3273 3.85868 13.41 4.13137 13.41 4.41031C13.4097 4.7842 13.261 5.14267 12.9967 5.40708C12.7323 5.67148 12.3739 5.82021 12 5.82063ZM12 3.93781C11.9065 3.93775 11.815 3.96544 11.7372 4.01737C11.6594 4.0693 11.5988 4.14314 11.5629 4.22954C11.5271 4.31595 11.5177 4.41104 11.536 4.50279C11.5542 4.59454 11.5992 4.67881 11.6654 4.74495C11.7315 4.8111 11.8158 4.85613 11.9075 4.87437C11.9993 4.8926 12.0944 4.88321 12.1808 4.84739C12.2672 4.81156 12.341 4.75091 12.393 4.67311C12.4449 4.59531 12.4726 4.50385 12.4725 4.41031C12.4723 4.28505 12.4225 4.16496 12.3339 4.07639C12.2454 3.98781 12.1253 3.93798 12 3.93781Z" fill="white"/>
      <path d="M10.277 15.5C10.2024 15.5 10.1286 15.4858 10.0597 15.4582C9.99083 15.4306 9.92827 15.3902 9.87558 15.3392L8.16607 13.6882C8.11339 13.6372 8.0716 13.5768 8.04311 13.5103C8.01462 13.4437 7.99997 13.3724 8 13.3004V11.9242C8.0006 11.414 8.21069 10.9249 8.58416 10.5642C8.95763 10.2035 9.46398 10.0007 9.9921 10.0002H13.9805C14.2443 9.99667 14.5063 10.0438 14.7512 10.139C14.996 10.2341 15.2189 10.3753 15.4068 10.5543C15.5947 10.7333 15.7439 10.9466 15.8457 11.1818C15.9476 11.417 16 11.6694 16 11.9244C16 12.1793 15.9476 12.4317 15.8457 12.6669C15.7439 12.9021 15.5947 13.1155 15.4068 13.2945C15.2189 13.4735 14.996 13.6147 14.7512 13.7098C14.5063 13.8049 14.2443 13.8521 13.9805 13.8486H11.7201L10.7491 15.2559C10.7025 15.3233 10.641 15.3799 10.569 15.4216C10.4971 15.4633 10.4164 15.4891 10.3329 15.4971C10.314 15.4989 10.2955 15.5 10.277 15.5ZM9.13488 13.072L10.1888 14.0898L10.9454 12.9935C10.9972 12.9184 11.0674 12.8568 11.1498 12.8142C11.2321 12.7717 11.3241 12.7494 11.4175 12.7494H13.9816C14.0956 12.7517 14.209 12.732 14.3151 12.6914C14.4212 12.6508 14.5178 12.5902 14.5993 12.5131C14.6809 12.436 14.7456 12.344 14.7898 12.2424C14.834 12.1408 14.8568 12.0317 14.8568 11.9215C14.8568 11.8113 14.834 11.7022 14.7898 11.6006C14.7456 11.499 14.6809 11.4069 14.5993 11.3298C14.5178 11.2527 14.4212 11.1921 14.3151 11.1515C14.209 11.111 14.0956 11.0913 13.9816 11.0936H9.9921C9.76488 11.0938 9.54701 11.181 9.38631 11.3362C9.2256 11.4914 9.13518 11.7018 9.13488 11.9213V13.072Z" fill="white"/>
      </g>
      <defs>
      <clipPath id="clip0_5534_18539">
      <rect width="16" height="16" fill="white" transform="translate(4 3)"/>
      </clipPath>
      </defs>
    </symbol>

    <symbol id="check" viewBox="0 0 24 24">
      <title>check</title>
      <path d="M8.79499 15.8749L4.62499 11.7049L3.20499 13.1149L8.79499 18.7049L20.795 6.70492L19.385 5.29492L8.79499 15.8749Z" fill="#68BD8A"/>
    </symbol>
    
    <symbol id="help" viewBox="0 0 24 24">
      <title>help</title>
      <path d="M10.0468 8.23125C10.5591 6.69444 12.5866 6.36542 13.5585 7.66138C14.1279 8.42052 14.0882 9.47458 13.4633 10.1887L12.5441 11.2392C11.7098 12.1927 11.25 13.4165 11.25 14.6834V15C11.25 15.4142 11.5858 15.75 12 15.75C12.4142 15.75 12.75 15.4142 12.75 15V14.6834C12.75 13.7798 13.078 12.907 13.673 12.227L14.5922 11.1765C15.6838 9.92892 15.7532 8.08755 14.7585 6.76138C13.0606 4.49743 9.5187 5.0722 8.62379 7.75691L8.28849 8.76283C8.1575 9.15579 8.36987 9.58053 8.76283 9.71151C9.15579 9.8425 9.58053 9.63013 9.71151 9.23717L10.0468 8.23125Z" fill="#4C7BFE"/>
      <path fill-rule="evenodd" clip-rule="evenodd" d="M12 1.25C6.06294 1.25 1.25 6.06294 1.25 12C1.25 17.9371 6.06294 22.75 12 22.75C17.9371 22.75 22.75 17.9371 22.75 12C22.75 6.06294 17.9371 1.25 12 1.25ZM2.75 12C2.75 6.89137 6.89137 2.75 12 2.75C17.1086 2.75 21.25 6.89137 21.25 12C21.25 17.1086 17.1086 21.25 12 21.25C6.89137 21.25 2.75 17.1086 2.75 12Z" fill="#4C7BFE"/>
      <path d="M13 18C13 18.5523 12.5523 19 12 19C11.4477 19 11 18.5523 11 18C11 17.4477 11.4477 17 12 17C12.5523 17 13 17.4477 13 18Z" fill="#4C7BFE"/>
    </symbol>

    <symbol id="lightbulb" viewBox="0 0 24 24">
      <title>lightbulb</title>
      <path d="M9 21C9 21.55 9.45 22 10 22H14C14.55 22 15 21.55 15 21V20H9V21ZM12 2C8.14 2 5 5.14 5 9C5 11.38 6.19 13.47 8 14.74V17C8 17.55 8.45 18 9 18H15C15.55 18 16 17.55 16 17V14.74C17.81 13.47 19 11.38 19 9C19 5.14 15.86 2 12 2ZM14.85 13.1L14 13.7V16H10V13.7L9.15 13.1C7.8 12.16 7 10.63 7 9C7 6.24 9.24 4 12 4C14.76 4 17 6.24 17 9C17 10.63 16.2 12.16 14.85 13.1Z" fill="#4C7BFE"/>
    </symbol>

    <symbol id="logo" viewBox="0 0 24 24">
      <title>logo</title>
      <rect width="24" height="24" rx="5" fill="#4C7BFE"/>
      <path d="M16.038 3.654C16.3167 3.654 16.4927 3.66133 16.566 3.676C16.566 4.43867 16.4707 5.106 16.28 5.678C16.2213 7.262 16.148 9.52067 16.06 12.454C15.9867 15.3727 15.9353 17.3013 15.906 18.24C16.7713 18.3573 17.4167 18.482 17.842 18.614V19.67C16.918 20.066 15.6493 20.264 14.036 20.264C13.948 20.1027 13.8307 19.7067 13.684 19.076C12.3347 19.8093 11.3593 20.2053 10.758 20.264C9.262 20.264 8.14 19.7213 7.392 18.636C6.65867 17.5507 6.292 16.1573 6.292 14.456C6.292 12.74 6.666 11.3027 7.414 10.144C8.162 8.97067 9.26933 8.384 10.736 8.384C11.5427 8.384 12.3933 8.63333 13.288 9.132L13.178 5.92C12.4887 5.84667 11.9093 5.73667 11.44 5.59C11.44 5.22333 11.4913 4.69533 11.594 4.006C12.4593 3.77133 13.9407 3.654 16.038 3.654ZM11.088 10.54C9.82667 10.54 9.196 11.7573 9.196 14.192C9.196 15.5853 9.44533 16.634 9.944 17.338C10.2227 17.7487 10.582 17.954 11.022 17.954C11.77 17.954 12.6133 17.6973 13.552 17.184L13.354 11.508C12.518 10.8627 11.7627 10.54 11.088 10.54Z" fill="white"/>
    </symbol>

    <symbol id="user" viewBox="0 0 24 24">
      <title>user</title>
      <path fill-rule="evenodd" clip-rule="evenodd" d="M11.5682 3C9.24608 3 7.36364 4.88244 7.36364 7.20455C7.36364 9.52665 9.24608 11.4091 11.5682 11.4091C13.8903 11.4091 15.7727 9.52665 15.7727 7.20455C15.7727 4.88244 13.8903 3 11.5682 3ZM9.04545 7.20455C9.04545 5.81128 10.1749 4.68182 11.5682 4.68182C12.9614 4.68182 14.0909 5.81128 14.0909 7.20455C14.0909 8.59781 12.9614 9.72727 11.5682 9.72727C10.1749 9.72727 9.04545 8.59781 9.04545 7.20455Z" fill="#4C7BFE"/>
      <path fill-rule="evenodd" clip-rule="evenodd" d="M8.20455 13.0909C5.88244 13.0909 4 14.9733 4 17.2955C4 19.6176 5.88244 21.5 8.20455 21.5H14.9318C17.2539 21.5 19.1364 19.6176 19.1364 17.2955C19.1364 14.9733 17.2539 13.0909 14.9318 13.0909H8.20455ZM5.68182 17.2955C5.68182 15.9022 6.81128 14.7727 8.20455 14.7727H14.9318C16.3251 14.7727 17.4545 15.9022 17.4545 17.2955C17.4545 18.6887 16.3251 19.8182 14.9318 19.8182H8.20455C6.81128 19.8182 5.68182 18.6887 5.68182 17.2955Z" fill="#4C7BFE"/>
    </symbol>

    <symbol id="world" viewBox="0 0 24 24">
      <title>world</title>
      <path d="M12 2C6.48 2 2 6.48 2 12C2 17.52 6.48 22 12 22C17.52 22 22 17.52 22 12C22 6.48 17.52 2 12 2ZM4 12C4 11.39 4.08 10.79 4.21 10.22L8.99 15V16C8.99 17.1 9.89 18 10.99 18V19.93C7.06 19.43 4 16.07 4 12ZM17.89 17.4C17.63 16.59 16.89 16 15.99 16H14.99V13C14.99 12.45 14.54 12 13.99 12H7.99V10H9.99C10.54 10 10.99 9.55 10.99 9V7H12.99C14.09 7 14.99 6.1 14.99 5V4.59C17.92 5.77 20 8.65 20 12C20 14.08 19.19 15.98 17.89 17.4Z" fill="#4C7BFE"/>
    </symbol>

    <symbol id="x" viewBox="0 0 24 24">
      <title>x</title>
      <path d="M18 6L6 18M6 6L18 18" stroke="#181B23" stroke-width="2" stroke-linecap="round" stroke-linejoin="round"/>
    </symbol>
  </defs>
</svg>
