<svg width="24" height="24" viewBox="0 0 24 24" fill="none" xmlns="http://www.w3.org/2000/svg">
<rect width="24" height="24" rx="12" fill="#4C7BFE"/>
<g clip-path="url(#clip0_5534_18539)">
<path d="M16.1989 19H7.80046C7.32312 18.9994 6.8655 18.8096 6.52797 18.472C6.19044 18.1345 6.00057 17.6769 6 17.1995V11.4733C6 9.00674 8.00674 7 10.4733 7H13.5267C15.9933 7 18 9.00674 18 11.4733V17.1995C17.9994 17.677 17.8095 18.1347 17.4718 18.4722C17.1342 18.8098 16.6764 18.9996 16.1989 19ZM10.4733 8C9.53108 8.00105 8.62748 8.29534 7.96126 8.96156C7.29504 9.62779 7.00105 10.5311 7 11.4733V17.1995C7.00024 17.4332 7.01241 17.6571 7.17763 17.8223C7.34284 17.9874 7.56685 17.9998 7.80046 18H16.1989C16.4325 17.9998 16.6564 17.9873 16.8216 17.8222C16.9867 17.657 16.9998 17.4331 17 17.1995V11.5C16.9989 10.5579 16.7041 9.62789 16.0379 8.96167C15.3718 8.29546 14.4689 8.00114 13.5267 8H10.4733Z" fill="white"/>
<path d="M18 14.7319C17.7006 14.7319 17 14.6479 17 14.1903V11.5C17 11.0098 17.6832 11 18 11C18.4904 11 19.1117 11.2286 19.4584 11.5753C19.8052 11.9221 20 12.3924 20 12.8828C20 13.3732 19.8052 13.8435 19.4584 14.1903C19.1117 14.5371 18.4904 14.7319 18 14.7319ZM18 13.7944C18.2418 13.7944 18.6246 13.6983 18.7955 13.5274C18.9665 13.3564 19 13.1246 19 12.8828C19 12.6411 18.9665 12.4092 18.7955 12.2382C18.6246 12.0673 18.2418 12 18 12V13.7944ZM6 14.7319C5.5096 14.7319 4.88834 14.5371 4.54158 14.1903C4.19481 13.8435 4 13.3732 4 12.8828C4 12.3924 4.19481 11.9221 4.54158 11.5753C4.88834 11.2286 5.5096 11.0337 6 11.0337C6.24396 11.0337 7 11.1024 7 11.5V14.5C7 14.6857 6.17506 14.7319 6 14.7319ZM6 12C5.75824 12 5.37544 12.0673 5.20449 12.2382C5.03354 12.4092 4.9375 12.6411 4.9375 12.8828C4.9375 13.1246 5.03354 13.3564 5.20449 13.5274C5.37544 13.6983 5.75824 13.7944 6 13.7944V12ZM12 7.70312C11.8757 7.70312 11.7565 7.65374 11.6685 7.56583C11.5806 7.47792 11.5312 7.3587 11.5312 7.23438V5.35156C11.5312 5.22724 11.5806 5.10801 11.6685 5.02011C11.7565 4.9322 11.8757 4.88281 12 4.88281C12.1243 4.88281 12.2435 4.9322 12.3315 5.02011C12.4194 5.10801 12.4688 5.22724 12.4688 5.35156V7.23438C12.4688 7.3587 12.4194 7.47792 12.3315 7.56583C12.2435 7.65374 12.1243 7.70312 12 7.70312Z" fill="white"/>
<path d="M12 5.82063C11.7211 5.82069 11.4484 5.73803 11.2164 5.5831C10.9844 5.42817 10.8036 5.20793 10.6968 4.95023C10.59 4.69254 10.5621 4.40896 10.6164 4.13537C10.6708 3.86177 10.8051 3.61045 11.0023 3.41318C11.1996 3.21592 11.4509 3.08156 11.7244 3.02712C11.998 2.97268 12.2816 3.00059 12.5393 3.10732C12.797 3.21406 13.0173 3.39482 13.1723 3.62675C13.3273 3.85868 13.41 4.13137 13.41 4.41031C13.4097 4.7842 13.261 5.14267 12.9967 5.40708C12.7323 5.67148 12.3739 5.82021 12 5.82063ZM12 3.93781C11.9065 3.93775 11.815 3.96544 11.7372 4.01737C11.6594 4.0693 11.5988 4.14314 11.5629 4.22954C11.5271 4.31595 11.5177 4.41104 11.536 4.50279C11.5542 4.59454 11.5992 4.67881 11.6654 4.74495C11.7315 4.8111 11.8158 4.85613 11.9075 4.87437C11.9993 4.8926 12.0944 4.88321 12.1808 4.84739C12.2672 4.81156 12.341 4.75091 12.393 4.67311C12.4449 4.59531 12.4726 4.50385 12.4725 4.41031C12.4723 4.28505 12.4225 4.16496 12.3339 4.07639C12.2454 3.98781 12.1253 3.93798 12 3.93781Z" fill="white"/>
<path d="M10.277 15.5C10.2024 15.5 10.1286 15.4858 10.0597 15.4582C9.99083 15.4306 9.92827 15.3902 9.87558 15.3392L8.16607 13.6882C8.11339 13.6372 8.0716 13.5768 8.04311 13.5103C8.01462 13.4437 7.99997 13.3724 8 13.3004V11.9242C8.0006 11.414 8.21069 10.9249 8.58416 10.5642C8.95763 10.2035 9.46398 10.0007 9.9921 10.0002H13.9805C14.2443 9.99667 14.5063 10.0438 14.7512 10.139C14.996 10.2341 15.2189 10.3753 15.4068 10.5543C15.5947 10.7333 15.7439 10.9466 15.8457 11.1818C15.9476 11.417 16 11.6694 16 11.9244C16 12.1793 15.9476 12.4317 15.8457 12.6669C15.7439 12.9021 15.5947 13.1155 15.4068 13.2945C15.2189 13.4735 14.996 13.6147 14.7512 13.7098C14.5063 13.8049 14.2443 13.8521 13.9805 13.8486H11.7201L10.7491 15.2559C10.7025 15.3233 10.641 15.3799 10.569 15.4216C10.4971 15.4633 10.4164 15.4891 10.3329 15.4971C10.314 15.4989 10.2955 15.5 10.277 15.5ZM9.13488 13.072L10.1888 14.0898L10.9454 12.9935C10.9972 12.9184 11.0674 12.8568 11.1498 12.8142C11.2321 12.7717 11.3241 12.7494 11.4175 12.7494H13.9816C14.0956 12.7517 14.209 12.732 14.3151 12.6914C14.4212 12.6508 14.5178 12.5902 14.5993 12.5131C14.6809 12.436 14.7456 12.344 14.7898 12.2424C14.834 12.1408 14.8568 12.0317 14.8568 11.9215C14.8568 11.8113 14.834 11.7022 14.7898 11.6006C14.7456 11.499 14.6809 11.4069 14.5993 11.3298C14.5178 11.2527 14.4212 11.1921 14.3151 11.1515C14.209 11.111 14.0956 11.0913 13.9816 11.0936H9.9921C9.76488 11.0938 9.54701 11.181 9.38631 11.3362C9.2256 11.4914 9.13518 11.7018 9.13488 11.9213V13.072Z" fill="white"/>
</g>
<defs>
<clipPath id="clip0_5534_18539">
<rect width="16" height="16" fill="white" transform="translate(4 3)"/>
</clipPath>
</defs>
</svg>
