<svg width="24" height="24" viewBox="0 0 24 24" fill="none" xmlns="http://www.w3.org/2000/svg">
<rect width="24" height="24" rx="5" fill="#4C7BFE"/>
<path d="M16.038 3.654C16.3167 3.654 16.4927 3.66133 16.566 3.676C16.566 4.43867 16.4707 5.106 16.28 5.678C16.2213 7.262 16.148 9.52067 16.06 12.454C15.9867 15.3727 15.9353 17.3013 15.906 18.24C16.7713 18.3573 17.4167 18.482 17.842 18.614V19.67C16.918 20.066 15.6493 20.264 14.036 20.264C13.948 20.1027 13.8307 19.7067 13.684 19.076C12.3347 19.8093 11.3593 20.2053 10.758 20.264C9.262 20.264 8.14 19.7213 7.392 18.636C6.65867 17.5507 6.292 16.1573 6.292 14.456C6.292 12.74 6.666 11.3027 7.414 10.144C8.162 8.97067 9.26933 8.384 10.736 8.384C11.5427 8.384 12.3933 8.63333 13.288 9.132L13.178 5.92C12.4887 5.84667 11.9093 5.73667 11.44 5.59C11.44 5.22333 11.4913 4.69533 11.594 4.006C12.4593 3.77133 13.9407 3.654 16.038 3.654ZM11.088 10.54C9.82667 10.54 9.196 11.7573 9.196 14.192C9.196 15.5853 9.44533 16.634 9.944 17.338C10.2227 17.7487 10.582 17.954 11.022 17.954C11.77 17.954 12.6133 17.6973 13.552 17.184L13.354 11.508C12.518 10.8627 11.7627 10.54 11.088 10.54Z" fill="white"/>
</svg>
