<svg width="24" height="24" viewBox="0 0 24 24" fill="none" xmlns="http://www.w3.org/2000/svg">
<path fill-rule="evenodd" clip-rule="evenodd" d="M11.5682 3C9.24608 3 7.36364 4.88244 7.36364 7.20455C7.36364 9.52665 9.24608 11.4091 11.5682 11.4091C13.8903 11.4091 15.7727 9.52665 15.7727 7.20455C15.7727 4.88244 13.8903 3 11.5682 3ZM9.04545 7.20455C9.04545 5.81128 10.1749 4.68182 11.5682 4.68182C12.9614 4.68182 14.0909 5.81128 14.0909 7.20455C14.0909 8.59781 12.9614 9.72727 11.5682 9.72727C10.1749 9.72727 9.04545 8.59781 9.04545 7.20455Z" fill="#4C7BFE"/>
<path fill-rule="evenodd" clip-rule="evenodd" d="M8.20455 13.0909C5.88244 13.0909 4 14.9733 4 17.2955C4 19.6176 5.88244 21.5 8.20455 21.5H14.9318C17.2539 21.5 19.1364 19.6176 19.1364 17.2955C19.1364 14.9733 17.2539 13.0909 14.9318 13.0909H8.20455ZM5.68182 17.2955C5.68182 15.9022 6.81128 14.7727 8.20455 14.7727H14.9318C16.3251 14.7727 17.4545 15.9022 17.4545 17.2955C17.4545 18.6887 16.3251 19.8182 14.9318 19.8182H8.20455C6.81128 19.8182 5.68182 18.6887 5.68182 17.2955Z" fill="#4C7BFE"/>
</svg>
