<svg width="161" height="30" viewBox="0 0 161 30" fill="none" xmlns="http://www.w3.org/2000/svg">
<path d="M13.37 0.709999C13.75 0.709999 13.99 0.719999 14.09 0.739999C14.09 1.78 13.96 2.69 13.7 3.47C13.62 5.63 13.52 8.71 13.4 12.71C13.3 16.69 13.23 19.32 13.19 20.6C14.37 20.76 15.25 20.93 15.83 21.11V22.55C14.57 23.09 12.84 23.36 10.64 23.36C10.52 23.14 10.36 22.6 10.16 21.74C8.32 22.74 6.99 23.28 6.17 23.36C4.13 23.36 2.6 22.62 1.58 21.14C0.58 19.66 0.0800001 17.76 0.0800001 15.44C0.0800001 13.1 0.59 11.14 1.61 9.56C2.63 7.96 4.14 7.16 6.14 7.16C7.24 7.16 8.4 7.5 9.62 8.18L9.47 3.8C8.53 3.7 7.74 3.55 7.1 3.35C7.1 2.85 7.17 2.13 7.31 1.19C8.49 0.869999 10.51 0.709999 13.37 0.709999ZM6.62 10.1C4.9 10.1 4.04 11.76 4.04 15.08C4.04 16.98 4.38 18.41 5.06 19.37C5.44 19.93 5.93 20.21 6.53 20.21C7.55 20.21 8.7 19.86 9.98 19.16L9.71 11.42C8.57 10.54 7.54 10.1 6.62 10.1ZM31.2329 7.64C31.6129 7.64 31.8529 7.65 31.9529 7.67C31.9529 8.69 31.7829 9.57 31.4429 10.31C31.3229 14.71 31.2229 17.96 31.1429 20.06C32.0429 20.14 32.8329 20.29 33.5129 20.51L33.4529 22.61C32.2329 22.99 31.1829 23.18 30.3029 23.18C29.4229 23.18 28.8229 23.16 28.5029 23.12C28.2629 22.64 28.0629 22.16 27.9029 21.68C26.2429 22.8 25.0429 23.36 24.3029 23.36C20.7229 23.36 18.9329 21.55 18.9329 17.93C18.9329 16.95 19.0129 14.54 19.1729 10.7C18.1129 10.7 17.1429 10.56 16.2629 10.28C16.2629 9.78 16.3329 9.06 16.4729 8.12C17.6529 7.8 19.6729 7.64 22.5329 7.64C22.9129 7.64 23.1529 7.65 23.2529 7.67C23.2529 8.65 23.0829 9.56 22.7429 10.4V16.46C22.7429 17.74 22.8729 18.68 23.1329 19.28C23.4129 19.86 23.9929 20.15 24.8729 20.15C25.7729 20.15 26.6929 19.84 27.6329 19.22L27.4529 10.7C26.5729 10.66 25.7429 10.52 24.9629 10.28C24.9629 9.78 25.0329 9.06 25.1729 8.12C26.3529 7.8 28.3729 7.64 31.2329 7.64ZM55.8547 14.33C55.8147 12.93 55.6447 11.96 55.3447 11.42C55.0647 10.88 54.4047 10.61 53.3647 10.61C52.3447 10.61 51.3947 10.83 50.5147 11.27C50.5147 13.83 50.3847 16.78 50.1247 20.12L52.4947 20.39C52.4947 21.21 52.2647 22.08 51.8047 23H44.3347L44.0647 21.35C45.1047 20.97 46.0147 20.67 46.7947 20.45L46.5547 14.21C46.5147 12.91 46.3547 11.99 46.0747 11.45C45.8147 10.89 45.3047 10.61 44.5447 10.61C44.1447 10.61 43.5647 10.68 42.8047 10.82C42.0447 10.96 41.4647 11.11 41.0647 11.27C41.0647 11.33 40.9747 14.28 40.7947 20.12L43.1347 20.39C43.1347 21.27 42.9047 22.14 42.4447 23H34.9747L34.7047 21.35C35.8847 20.89 36.7847 20.59 37.4047 20.45L37.0147 10.76C36.1947 10.68 35.4047 10.53 34.6447 10.31L34.7947 8.15C35.1347 8.05 35.8647 7.93 36.9847 7.79C38.1047 7.65 38.9547 7.58 39.5347 7.58C39.6147 7.64 39.7647 7.83 39.9847 8.15C40.2047 8.45 40.3547 8.69 40.4347 8.87C41.1147 8.53 41.9347 8.2 42.8947 7.88C43.8747 7.56 44.4747 7.4 44.6947 7.4C46.8147 7.4 48.3647 7.95 49.3447 9.05C50.1047 8.65 51.0247 8.28 52.1047 7.94C53.1847 7.58 53.8547 7.4 54.1147 7.4C56.0147 7.4 57.4347 7.85 58.3747 8.75C59.3147 9.65 59.7847 11.15 59.7847 13.25C59.7847 14.41 59.6947 16.7 59.5147 20.12L61.8547 20.39C61.8547 21.27 61.6247 22.14 61.1647 23H53.7247L53.4547 21.35C54.3947 20.97 55.2547 20.67 56.0347 20.45C56.0147 19.99 55.9947 19.34 55.9747 18.5C55.9347 17.12 55.8947 15.73 55.8547 14.33ZM67.9067 0.709999C68.3867 0.709999 68.6967 0.719999 68.8367 0.739999C68.8367 1.78 68.7067 2.69 68.4467 3.47L68.3567 8.51C70.2167 7.77 71.4967 7.4 72.1967 7.4C74.1767 7.4 75.6367 8.14 76.5767 9.62C77.5367 11.08 78.0167 12.98 78.0167 15.32C78.0167 17.66 77.4867 19.59 76.4267 21.11C75.3667 22.61 73.8267 23.36 71.8067 23.36C70.4867 23.36 69.0967 22.86 67.6367 21.86C67.5567 22.32 67.4367 22.74 67.2767 23.12C66.9167 23.16 66.5567 23.18 66.1967 23.18C65.8367 23.18 65.3867 23.12 64.8467 23L64.2167 3.8C63.2767 3.7 62.4867 3.55 61.8467 3.35C61.8467 2.61 61.9167 1.89 62.0567 1.19C63.2167 0.869999 65.1667 0.709999 67.9067 0.709999ZM71.6867 10.55C70.3867 10.55 69.2667 10.78 68.3267 11.24C68.2867 14.6 68.2467 17.14 68.2067 18.86C68.6867 19.26 69.2367 19.62 69.8567 19.94C70.4767 20.26 71.0067 20.42 71.4467 20.42C73.1867 20.42 74.0567 18.82 74.0567 15.62C74.0567 14.26 73.8667 13.08 73.4867 12.08C73.1267 11.06 72.5267 10.55 71.6867 10.55ZM89.4856 8.69L89.5156 9.62C89.5156 11.18 89.3956 12.2 89.1556 12.68C88.4956 12.92 87.5756 13.04 86.3956 13.04L85.4356 10.01C85.1756 9.91 84.8156 9.86 84.3556 9.86C83.8956 9.86 83.5156 10 83.2156 10.28C82.9356 10.56 82.7956 10.89 82.7956 11.27C82.7956 11.65 82.9456 12 83.2456 12.32C83.5456 12.62 83.8556 12.86 84.1756 13.04C84.4956 13.22 84.9556 13.46 85.5556 13.76C86.1756 14.04 86.6356 14.26 86.9356 14.42C87.2556 14.58 87.6556 14.82 88.1356 15.14C88.6356 15.46 89.0156 15.76 89.2756 16.04C89.9156 16.8 90.2356 17.63 90.2356 18.53C90.2356 20.07 89.6456 21.26 88.4656 22.1C87.3056 22.94 85.8756 23.36 84.1756 23.36C83.2756 23.36 82.2856 23.2 81.2056 22.88C80.1456 22.56 79.2456 22.13 78.5056 21.59C78.5056 20.15 78.6456 18.81 78.9256 17.57C79.7256 17.47 80.3756 17.42 80.8756 17.42C81.3756 17.42 81.7156 17.43 81.8956 17.45L82.2556 20.36C82.7556 20.54 83.3556 20.63 84.0556 20.63C84.7556 20.63 85.3056 20.49 85.7056 20.21C86.1256 19.93 86.3356 19.54 86.3356 19.04C86.3356 18.52 86.1056 18.09 85.6456 17.75C85.1856 17.41 84.5556 17.06 83.7556 16.7C82.9556 16.32 82.3356 16.01 81.8956 15.77C81.4556 15.51 80.9856 15.18 80.4856 14.78C79.4656 14 78.9556 13.04 78.9556 11.9C78.9556 10.48 79.4456 9.38 80.4256 8.6C81.4256 7.8 82.7656 7.4 84.4456 7.4C86.1256 7.4 87.8056 7.83 89.4856 8.69ZM101.58 23.36C100.42 23.36 99.2001 22.98 97.9201 22.22C97.8801 24.34 97.8601 25.94 97.8601 27.02L100.2 27.29C100.2 28.17 99.9701 29.04 99.5101 29.9H92.0401L91.7701 28.25C93.0501 27.77 93.9501 27.47 94.4701 27.35L93.9001 10.7C92.9601 10.62 92.1701 10.47 91.5301 10.25C91.5301 9.51 91.6001 8.79 91.7401 8.09C92.5801 7.91 94.4401 7.75 97.3201 7.61C97.4801 7.87 97.6601 8.31 97.8601 8.93C99.9401 7.91 101.31 7.4 101.97 7.4C103.95 7.4 105.42 8.1 106.38 9.5C107.34 10.88 107.82 12.74 107.82 15.08C107.82 17.42 107.28 19.39 106.2 20.99C105.14 22.57 103.6 23.36 101.58 23.36ZM98.1001 11.57L97.9801 19.16C98.4401 19.58 98.9801 19.95 99.6001 20.27C100.24 20.57 100.78 20.72 101.22 20.72C102.98 20.72 103.86 19.03 103.86 15.65C103.86 14.39 103.73 13.38 103.47 12.62C103.23 11.86 102.94 11.33 102.6 11.03C102.28 10.71 101.9 10.55 101.46 10.55C100.58 10.55 99.4601 10.89 98.1001 11.57ZM114.151 0.709999C114.531 0.709999 114.771 0.719999 114.871 0.739999C114.871 1.78 114.741 2.69 114.481 3.47C114.461 4.71 114.431 6.46 114.391 8.72C114.311 13.68 114.251 17.48 114.211 20.12L116.551 20.39C116.551 21.21 116.321 22.08 115.861 23H108.391L108.121 21.35C109.361 20.89 110.261 20.59 110.821 20.45L110.251 3.8C109.311 3.7 108.521 3.55 107.881 3.35C107.881 2.61 107.951 1.89 108.091 1.19C109.271 0.869999 111.291 0.709999 114.151 0.709999ZM152.479 7.4C154.479 7.4 155.929 7.89 156.829 8.87C157.729 9.85 158.179 11.22 158.179 12.98C158.179 14.74 158.079 17.12 157.879 20.12L160.249 20.39C160.249 21.21 160.019 22.08 159.559 23H152.089L151.819 21.35C152.759 20.97 153.629 20.67 154.429 20.45C154.369 18.15 154.309 16.22 154.249 14.66C154.189 13.08 154.039 12.01 153.799 11.45C153.559 10.89 153.029 10.61 152.209 10.61C150.969 10.61 149.859 10.83 148.879 11.27C148.859 12.13 148.799 13.54 148.699 15.5C148.619 17.44 148.569 18.98 148.549 20.12L150.889 20.39C150.889 21.21 150.659 22.08 150.199 23H142.729L142.459 21.35C143.459 20.97 144.359 20.67 145.159 20.45C145.139 19.25 145.069 17.59 144.949 15.47C144.849 13.35 144.789 11.78 144.769 10.76C144.029 10.68 143.239 10.53 142.399 10.31L142.549 8.15C143.949 7.77 145.529 7.58 147.289 7.58C147.509 7.72 147.809 8.15 148.189 8.87C148.869 8.53 149.699 8.2 150.679 7.88C151.659 7.56 152.259 7.4 152.479 7.4Z" fill="#8CA8FF"/>
<path d="M122.728 23.36C121.028 23.36 119.708 23.01 118.768 22.31C117.848 21.61 117.388 20.43 117.388 18.77C117.388 17.19 117.938 15.9 119.038 14.9C119.678 14.32 120.568 13.98 121.708 13.88C122.848 13.78 124.418 13.73 126.418 13.73V13.25C126.418 12.03 126.218 11.14 125.818 10.58C125.438 10 124.758 9.71 123.778 9.71C123.278 9.71 122.828 9.81 122.428 10.01L121.708 12.62L119.488 12.56C118.988 11.8 118.718 10.59 118.678 8.93C119.078 8.73 120.018 8.43 121.498 8.03C122.978 7.61 123.928 7.4 124.348 7.4C126.508 7.4 128.078 7.85 129.058 8.75C130.038 9.63 130.528 11.04 130.528 12.98C130.528 14.9 130.438 17.44 130.258 20.6C131.398 20.7 132.278 20.87 132.898 21.11C132.918 21.35 132.928 21.64 132.928 21.98L132.898 22.64C131.458 23.12 130.008 23.36 128.548 23.36C128.168 23.36 127.888 23.35 127.708 23.33C127.408 22.73 127.228 22.01 127.168 21.17H127.018C126.638 21.53 125.968 21.99 125.008 22.55C124.068 23.09 123.308 23.36 122.728 23.36ZM121.228 18.95C121.228 19.61 121.428 20.1 121.828 20.42C122.248 20.72 122.718 20.87 123.238 20.87C123.758 20.87 124.378 20.64 125.098 20.18C125.818 19.7 126.398 19.27 126.838 18.89L126.688 16.13C125.108 16.21 123.918 16.36 123.118 16.58C121.858 16.84 121.228 17.63 121.228 18.95ZM139.5 7.64C139.88 7.64 140.12 7.65 140.22 7.67C140.22 8.65 140.05 9.56 139.71 10.4C139.63 14.72 139.58 17.96 139.56 20.12L141.9 20.39C141.9 21.21 141.67 22.08 141.21 23H133.74L133.47 21.35C134.71 20.89 135.61 20.59 136.17 20.45L135.84 10.73C134.66 10.61 133.79 10.46 133.23 10.28C133.23 9.78 133.3 9.06 133.44 8.12C134.62 7.8 136.64 7.64 139.5 7.64ZM139.5 1.97C139.68 2.87 139.77 3.56 139.77 4.04C139.77 4.5 139.73 5.02 139.65 5.6C138.85 5.78 138.17 5.87 137.61 5.87C137.07 5.87 136.41 5.84 135.63 5.78C135.45 4.88 135.36 4.2 135.36 3.74C135.36 3.26 135.4 2.73 135.48 2.15C136.28 1.97 136.95 1.88 137.49 1.88C138.05 1.88 138.72 1.91 139.5 1.97Z" fill="#F59E6C"/>
</svg>
