<svg width="24" height="24" viewBox="0 0 24 24" fill="none" xmlns="http://www.w3.org/2000/svg">
<g clip-path="url(#clip0_7335_15189)">
<path d="M18.2984 24.001H5.70069C4.98468 24.0001 4.29825 23.7153 3.79195 23.209C3.28566 22.7027 3.00085 22.0163 3 21.3003V12.7109C3 9.01109 6.01011 6.00098 9.70988 6.00098H14.2901C17.9899 6.00098 21 9.01109 21 12.7109V21.3003C20.9991 22.0165 20.7142 22.703 20.2077 23.2093C19.7012 23.7157 19.0146 24.0004 18.2984 24.001ZM9.70988 7.50098C8.29661 7.50256 6.94122 7.94399 5.94189 8.94332C4.94255 9.94266 4.50158 11.2976 4.5 12.7109V21.3003C4.50037 21.6507 4.51861 21.9867 4.76644 22.2344C5.01427 22.4821 5.35027 22.5007 5.70069 22.501H18.2984C18.6487 22.5006 18.9846 22.482 19.2323 22.2342C19.4801 21.9865 19.4996 21.6506 19.5 21.3003V12.751C19.4984 11.3378 19.0561 9.94281 18.0569 8.94349C17.0577 7.94416 15.7033 7.50268 14.2901 7.50098H9.70988Z" fill="#4C7BFE"/>
<path d="M21 17.5978C20.5509 17.5978 19.5 17.4719 19.5 16.7854V12.75C19.5 12.0147 20.5248 12 21 12C21.7356 12 22.6675 12.3428 23.1876 12.863C23.7078 13.3831 24 14.0886 24 14.8242C24 15.5598 23.7078 16.2653 23.1876 16.7854C22.6675 17.3056 21.7356 17.5978 21 17.5978ZM21 16.1916C21.3626 16.1916 21.9368 16.0475 22.1933 15.7911C22.4497 15.5347 22.5 15.1869 22.5 14.8242C22.5 14.4616 22.4497 14.1138 22.1933 13.8574C21.9368 13.6009 21.3626 13.5 21 13.5V16.1916ZM3 17.5978C2.2644 17.5978 1.33252 17.3056 0.812367 16.7854C0.292217 16.2653 0 15.5598 0 14.8242C0 14.0886 0.292217 13.3831 0.812367 12.863C1.33252 12.3428 2.2644 12.0506 3 12.0506C3.36594 12.0506 4.5 12.1537 4.5 12.75V17.25C4.5 17.5286 3.26259 17.5978 3 17.5978ZM3 13.5C2.63736 13.5 2.06316 13.6009 1.80674 13.8574C1.55031 14.1138 1.40625 14.4616 1.40625 14.8242C1.40625 15.1869 1.55031 15.5347 1.80674 15.7911C2.06316 16.0475 2.63736 16.1916 3 16.1916V13.5ZM12 7.05469C11.8135 7.05469 11.6347 6.98061 11.5028 6.84875C11.371 6.71689 11.2969 6.53804 11.2969 6.35156V3.52734C11.2969 3.34086 11.371 3.16202 11.5028 3.03016C11.6347 2.8983 11.8135 2.82422 12 2.82422C12.1865 2.82422 12.3653 2.8983 12.4972 3.03016C12.629 3.16202 12.7031 3.34086 12.7031 3.52734V6.35156C12.7031 6.53804 12.629 6.71689 12.4972 6.84875C12.3653 6.98061 12.1865 7.05469 12 7.05469Z" fill="#4C7BFE"/>
<path d="M12 4.23094C11.5816 4.23103 11.1725 4.10704 10.8246 3.87465C10.4766 3.64225 10.2054 3.31189 10.0452 2.92535C9.88504 2.53881 9.84308 2.11344 9.92466 1.70305C10.0062 1.29266 10.2077 0.915674 10.5035 0.619773C10.7993 0.323873 11.1763 0.122347 11.5867 0.0406834C11.997 -0.0409804 12.4224 0.00088552 12.809 0.160987C13.1956 0.321088 13.526 0.592232 13.7584 0.940129C13.9909 1.28803 14.115 1.69705 14.115 2.11547C14.1145 2.67629 13.8915 3.21401 13.495 3.61062C13.0985 4.00722 12.5608 4.23032 12 4.23094ZM12 1.40672C11.8597 1.40663 11.7225 1.44815 11.6058 1.52605C11.4891 1.60394 11.3981 1.7147 11.3444 1.84432C11.2907 1.97393 11.2766 2.11657 11.3039 2.25418C11.3313 2.3918 11.3988 2.51822 11.498 2.61743C11.5973 2.71665 11.7237 2.7842 11.8613 2.81155C11.9989 2.8389 12.1415 2.82482 12.2712 2.77108C12.4008 2.71734 12.5115 2.62637 12.5894 2.50967C12.6673 2.39296 12.7088 2.25578 12.7088 2.11547C12.7085 1.92757 12.6338 1.74744 12.5009 1.61458C12.368 1.48172 12.1879 1.40697 12 1.40672Z" fill="#4C7BFE"/>
<path d="M9.41543 18.751C9.30359 18.751 9.19286 18.7296 9.08956 18.6883C8.98625 18.6469 8.8924 18.5862 8.81337 18.5098L6.24911 16.0332C6.17008 15.9568 6.10741 15.8662 6.06466 15.7664C6.02192 15.6666 5.99995 15.5596 6 15.4516V13.3873C6.0009 12.622 6.31603 11.8884 6.87624 11.3473C7.43644 10.8063 8.19597 10.502 8.98815 10.5013H14.9707C15.3665 10.496 15.7595 10.5667 16.1268 10.7094C16.4941 10.8521 16.8283 11.0639 17.1102 11.3324C17.392 11.601 17.6158 11.9209 17.7686 12.2737C17.9213 12.6265 18 13.0051 18 13.3876C18 13.77 17.9213 14.1486 17.7686 14.5014C17.6158 14.8542 17.392 15.1742 17.1102 15.4427C16.8283 15.7112 16.4941 15.923 16.1268 16.0657C15.7595 16.2084 15.3665 16.2791 14.9707 16.2739H11.5802L10.1236 18.3848C10.0537 18.4859 9.96149 18.5709 9.85356 18.6334C9.74562 18.696 9.62467 18.7346 9.49941 18.7466C9.47104 18.7493 9.44323 18.751 9.41543 18.751ZM7.70232 15.109L9.28322 16.6356L10.4181 14.9912C10.4958 14.8786 10.6011 14.7862 10.7247 14.7223C10.8482 14.6585 10.9861 14.625 11.1263 14.625H14.9724C15.1435 14.6285 15.3136 14.5989 15.4727 14.5381C15.6318 14.4772 15.7767 14.3863 15.899 14.2707C16.0213 14.155 16.1184 14.0169 16.1847 13.8645C16.2511 13.7121 16.2852 13.5485 16.2852 13.3832C16.2852 13.2179 16.2511 13.0542 16.1847 12.9018C16.1184 12.7494 16.0213 12.6113 15.899 12.4957C15.7767 12.38 15.6318 12.2891 15.4727 12.2283C15.3136 12.1674 15.1435 12.1379 14.9724 12.1413H8.98815C8.64732 12.1416 8.32052 12.2725 8.07946 12.5053C7.83841 12.738 7.70277 13.0537 7.70232 13.3829V15.109Z" fill="#4C7BFE"/>
</g>
<defs>
<clipPath id="clip0_7335_15189">
<rect width="24" height="24" fill="white"/>
</clipPath>
</defs>
</svg>
